<svg width="166" height="21" viewBox="0 0 166 21" fill="none" xmlns="http://www.w3.org/2000/svg">
<path fill-rule="evenodd" clip-rule="evenodd" d="M114.178 20.1936L125.989 0H165.566V3.32953H135.879L132.947 8.42371H148.619L146.73 11.7532H130.976L127.96 16.8474H143.715L141.744 20.1936H114.178ZM85.7661 14.9329H97.6439C97.2465 15.5156 97.0641 16.0983 97.3128 16.4645C97.7433 17.1138 99.2676 16.7972 99.6654 16.6643C100.46 16.4146 100.891 15.9151 101.272 15.2492L103.26 11.7532H91.1504C88.6152 11.7532 88.5326 10.2383 89.56 8.42371L93.2872 2.06431C94.3971 0.233067 95.8883 0 97.7932 0H118.849C120.986 0 120.986 1.748 120.125 3.32953L118.932 5.47707H106.988C107.352 4.77787 107.368 4.16191 107.087 3.77901C106.623 3.1464 105.397 3.27959 104.751 3.61254C104.238 3.89555 103.807 4.37833 103.343 5.16077L101.438 8.42371H113.15C115.619 8.42371 116 10.2385 115.221 11.7532L111.659 17.7297C110.699 19.3113 109.042 20.1936 107.137 20.1936H86.2304C84.1762 20.1936 83.464 18.8285 84.3416 17.3302L85.7661 14.9329ZM60.7509 3.32953C62.656 0 65.8202 0 68.272 0H86.1639C88.0522 0 89.6426 1.58153 88.6152 3.32953L80.7133 16.8474C79.0401 19.5443 77.6983 20.1936 75.5612 20.1936H54.7373C52.6831 20.1936 51.7388 18.6787 52.8488 16.8474L60.7509 3.32953ZM71.138 5.16077L65.1079 15.2492C64.9091 15.6155 64.8262 15.9482 64.9422 16.2148C65.3232 17.0472 67.6591 16.8974 68.4708 16.7309C69.6305 16.4645 69.9286 15.6321 70.1771 15.2492L76.1245 5.16077C76.5386 4.44492 76.4889 3.97879 76.1245 3.69578C75.5943 3.27959 73.9708 3.24629 73.0763 3.49601C72.3142 3.71242 71.6847 4.19521 71.138 5.16077ZM31.8592 0H54.8202C56.6425 0 58.0672 1.66476 56.8744 3.66248L54.5054 7.70786C53.4783 9.5391 51.7388 10.4048 50.4632 10.4048C51.7388 11.1206 51.7388 12.3856 51.0927 13.5012L48.7237 17.6463C48.0942 18.7617 47.1334 20.1936 44.2177 20.1936H0.101562V16.8474H21.9691L31.8592 0ZM38.7508 8.42371H44.5987C45.9572 8.42371 46.5039 7.70786 46.8186 7.07525L48.0114 5.16077C48.4918 4.29509 48.4918 3.32953 47.4647 3.32953H41.7493L38.7508 8.42371ZM33.7643 16.8474H39.6123C40.9707 16.8474 41.5174 16.1313 41.8319 15.499L43.0249 13.5845C43.5054 12.7022 43.5054 11.7532 42.4617 11.7532H36.7629L33.7643 16.8474ZM164.025 7.37491C163.114 7.37491 162.335 6.65906 162.335 5.69349C162.335 4.72793 163.114 4.02873 164.025 4.02873C164.937 4.02873 165.699 4.72793 165.699 5.69349C165.699 6.65906 164.937 7.37491 164.025 7.37491ZM162.667 5.69349C162.667 6.49258 163.264 7.0919 164.025 7.0919C164.771 7.0919 165.367 6.49258 165.367 5.69349C165.367 4.89441 164.771 4.29509 164.025 4.29509C163.264 4.29509 162.667 4.89441 162.667 5.69349ZM163.678 5.82668V6.65906H163.38V4.72793H164.108C164.572 4.72793 164.787 4.89441 164.787 5.2773C164.787 5.6269 164.572 5.77673 164.29 5.81003L164.837 6.65906H164.506L164.009 5.82668H163.678ZM163.678 5.57696H164.025C164.274 5.57696 164.49 5.56031 164.49 5.26066C164.49 5.02759 164.274 4.97765 164.075 4.97765H163.678V5.57696Z" fill="black"/>
</svg>
