<svg width="25" height="24" viewBox="0 0 25 24" fill="none" xmlns="http://www.w3.org/2000/svg">
<path d="M19.3729 19.2C20.0094 19.2 20.6198 19.4529 21.0699 19.9029C21.52 20.353 21.7729 20.9635 21.7729 21.6C21.7729 22.2365 21.52 22.847 21.0699 23.2971C20.6198 23.7471 20.0094 24 19.3729 24C18.7363 24 18.1259 23.7471 17.6758 23.2971C17.2257 22.847 16.9729 22.2365 16.9729 21.6C16.9729 20.268 18.0409 19.2 19.3729 19.2ZM0.172852 0H4.09685L5.22485 2.4H22.9729C23.2911 2.4 23.5963 2.52643 23.8214 2.75147C24.0464 2.97652 24.1729 3.28174 24.1729 3.6C24.1729 3.804 24.1129 4.008 24.0289 4.2L19.7329 11.964C19.3249 12.696 18.5329 13.2 17.6329 13.2H8.69285L7.61285 15.156L7.57685 15.3C7.57685 15.3796 7.60846 15.4559 7.66472 15.5121C7.72098 15.5684 7.79729 15.6 7.87685 15.6H21.7729V18H7.37285C6.73633 18 6.12588 17.7471 5.6758 17.2971C5.22571 16.847 4.97285 16.2365 4.97285 15.6C4.97285 15.18 5.08085 14.784 5.26085 14.448L6.89285 11.508L2.57285 2.4H0.172852V0ZM7.37285 19.2C8.00937 19.2 8.61982 19.4529 9.06991 19.9029C9.51999 20.353 9.77285 20.9635 9.77285 21.6C9.77285 22.2365 9.51999 22.847 9.06991 23.2971C8.61982 23.7471 8.00937 24 7.37285 24C6.73633 24 6.12588 23.7471 5.6758 23.2971C5.22571 22.847 4.97285 22.2365 4.97285 21.6C4.97285 20.268 6.04085 19.2 7.37285 19.2ZM18.1729 10.8L21.5089 4.8H6.34085L9.17285 10.8H18.1729Z" fill="#3F3F3F"/>
</svg>
