<svg width="14" height="13" viewBox="0 0 14 13" fill="none" xmlns="http://www.w3.org/2000/svg">
<path fill-rule="evenodd" clip-rule="evenodd" d="M3.55934 11.0591C3.55934 10.5039 4.01464 10.0538 4.57629 10.0538C5.13794 10.0538 5.59324 10.5039 5.59324 11.0591C5.59324 11.6144 5.13794 12.0645 4.57629 12.0645C4.01464 12.0645 3.55934 11.6144 3.55934 11.0591Z" fill="#878787"/>
<path fill-rule="evenodd" clip-rule="evenodd" d="M10.678 11.0591C10.678 10.5039 11.1333 10.0538 11.695 10.0538C12.2566 10.0538 12.7119 10.5039 12.7119 11.0591C12.7119 11.6144 12.2566 12.0645 11.695 12.0645C11.1333 12.0645 10.678 11.6144 10.678 11.0591Z" fill="#878787"/>
<path fill-rule="evenodd" clip-rule="evenodd" d="M0 0.502688C0 0.225061 0.227653 0 0.508477 0H2.54238C2.78912 0 3.00024 0.175115 3.04312 0.415328L4.49442 8.5457H12.2034C12.4843 8.5457 12.7119 8.77076 12.7119 9.04839C12.7119 9.32601 12.4843 9.55107 12.2034 9.55107H4.06781C3.82108 9.55107 3.60995 9.37596 3.56707 9.13575L2.11578 1.00538H0.508477C0.227653 1.00538 0 0.780315 0 0.502688Z" fill="#878787"/>
<path fill-rule="evenodd" clip-rule="evenodd" d="M12.9102 1.50806C13.023 1.50804 13.1344 1.53274 13.2363 1.58039C13.3384 1.62809 13.4285 1.69759 13.5001 1.78389C13.5717 1.87018 13.623 1.97111 13.6504 2.0794C13.6777 2.18767 13.6804 2.30059 13.6583 2.41001L13.6583 2.41008L12.743 6.93427C12.7084 7.10527 12.6149 7.25911 12.4785 7.36961C12.342 7.48012 12.171 7.54044 11.9946 7.54032L11.995 7.03763V7.54032H11.9946H4.06781C3.78699 7.54032 3.55934 7.31526 3.55934 7.03763C3.55934 6.76001 3.78699 6.53495 4.06781 6.53495H11.7867L11.7458 6.73696L11.7458 6.73703L11.9951 6.78633L11.9952 6.78633L12.2444 6.83562L11.9951 6.78629L11.995 6.78626L11.7458 6.73696C11.7574 6.67996 11.7886 6.62868 11.834 6.59185C11.8794 6.55509 11.9363 6.53499 11.995 6.53495H11.7867L12.6003 2.51344H12.9102C12.8727 2.51342 12.8357 2.50518 12.8018 2.48933C12.7677 2.47343 12.7377 2.45026 12.7138 2.4215C12.69 2.39274 12.6729 2.35909 12.6637 2.32299C12.6546 2.28697 12.6537 2.2494 12.6611 2.21298L12.6003 2.51344H3.05086C2.77004 2.51344 2.54238 2.28838 2.54238 2.01075C2.54238 1.73313 2.77004 1.50806 3.05086 1.50806H12.9101C12.91 1.50806 12.9099 1.50806 12.9099 1.50806L12.9102 2.01075V1.50806Z" fill="#878787"/>
</svg>
