<svg width="26" height="26" viewBox="0 0 26 26" fill="none" xmlns="http://www.w3.org/2000/svg">
<path d="M0.632336 0.688559C1.03775 0.284505 1.5873 0.0575515 2.16028 0.0575515C2.73325 0.0575515 3.28281 0.284505 3.68822 0.688559L12.9712 9.95199L22.2541 0.688559C22.5184 0.404543 22.8546 0.196917 23.2272 0.0875565C23.5998 -0.0218042 23.995 -0.0288507 24.3713 0.0671588C24.7476 0.163168 25.091 0.358679 25.3653 0.633093C25.6396 0.907507 25.8346 1.25066 25.9298 1.62641C26.0258 2.0015 26.019 2.39546 25.9099 2.76698C25.8009 3.1385 25.5936 3.4739 25.31 3.73801L16.027 13.0014L25.31 22.2649C25.5946 22.5286 25.8027 22.8641 25.9123 23.2359C26.0219 23.6077 26.0289 24.0022 25.9327 24.3777C25.8365 24.7532 25.6406 25.0958 25.3656 25.3695C25.0906 25.6432 24.7467 25.8378 24.3702 25.9329C23.9943 26.0287 23.5995 26.0218 23.2272 25.913C22.8549 25.8042 22.5188 25.5974 22.2541 25.3143L12.9712 16.0509L3.68822 25.3143C3.27842 25.6959 2.73615 25.9038 2.17574 25.8942C1.61532 25.8845 1.08057 25.658 0.684228 25.2626C0.287908 24.8671 0.060983 24.3334 0.0513022 23.7742C0.0416214 23.215 0.249941 22.6738 0.632336 22.2649L9.91529 13.0014L0.632336 3.73801C0.227431 3.33346 0 2.78506 0 2.21329C0 1.64151 0.227431 1.09312 0.632336 0.688559Z" fill="white"/>
</svg>
