<svg width="25" height="24" viewBox="0 0 25 24" fill="none" xmlns="http://www.w3.org/2000/svg">
<path fill-rule="evenodd" clip-rule="evenodd" d="M15.6014 6C15.6014 6.90931 15.2402 7.78138 14.5972 8.42437C13.9542 9.06735 13.0822 9.42857 12.1729 9.42857C11.2635 9.42857 10.3915 9.06735 9.74849 8.42437C9.1055 7.78138 8.74428 6.90931 8.74428 6C8.74428 5.09069 9.1055 4.21862 9.74849 3.57563C10.3915 2.93265 11.2635 2.57143 12.1729 2.57143C13.0822 2.57143 13.9542 2.93265 14.5972 3.57563C15.2402 4.21862 15.6014 5.09069 15.6014 6ZM18.1729 6C18.1729 7.5913 17.5407 9.11742 16.4155 10.2426C15.2903 11.3679 13.7642 12 12.1729 12C10.5816 12 9.05543 11.3679 7.93021 10.2426C6.80499 9.11742 6.17285 7.5913 6.17285 6C6.17285 4.4087 6.80499 2.88258 7.93021 1.75736C9.05543 0.632141 10.5816 0 12.1729 0C13.7642 0 15.2903 0.632141 16.4155 1.75736C17.5407 2.88258 18.1729 4.4087 18.1729 6ZM2.74428 19.7143C2.74428 19.3646 3.12142 18.3274 5.00714 17.2131C6.75228 16.1829 9.29285 15.4286 12.1729 15.4286C15.0529 15.4286 17.5934 16.1829 19.3386 17.2131C21.2243 18.3274 21.6014 19.3646 21.6014 19.7143C21.6014 20.1689 21.4208 20.605 21.0993 20.9265C20.7778 21.248 20.3418 21.4286 19.8871 21.4286H4.45857C4.00391 21.4286 3.56787 21.248 3.24638 20.9265C2.92489 20.605 2.74428 20.1689 2.74428 19.7143ZM12.1729 12.8571C5.57285 12.8571 0.172852 16.2857 0.172852 19.7143C0.172852 20.8509 0.624381 21.941 1.42811 22.7447C2.23184 23.5485 3.32192 24 4.45857 24H19.8871C21.0238 24 22.1139 23.5485 22.9176 22.7447C23.7213 21.941 24.1729 20.8509 24.1729 19.7143C24.1729 16.2857 18.7729 12.8571 12.1729 12.8571Z" fill="#3F3F3F"/>
</svg>
