<svg width="30" height="26" viewBox="0 0 30 26" fill="none" xmlns="http://www.w3.org/2000/svg">
<path d="M26.7647 21.4118C27.3539 21.4121 27.9203 21.639 28.3467 22.0456C28.7731 22.4521 29.0267 23.0072 29.055 23.5956C29.0834 24.1841 28.8842 24.7609 28.4988 25.2065C28.1134 25.6522 27.5713 25.9324 26.9849 25.9893L26.7647 26H2.29412C1.70496 25.9997 1.1385 25.7728 0.712115 25.3662C0.285727 24.9596 0.0320993 24.4046 0.00378642 23.8161C-0.0245264 23.2277 0.174646 22.6508 0.560033 22.2052C0.94542 21.7596 1.48748 21.4793 2.07388 21.4225L2.29412 21.4118H26.7647ZM26.7647 10.7059C27.3731 10.7059 27.9567 10.9476 28.3869 11.3778C28.8171 11.808 29.0588 12.3916 29.0588 13C29.0588 13.6084 28.8171 14.192 28.3869 14.6222C27.9567 15.0524 27.3731 15.2941 26.7647 15.2941H2.29412C1.68568 15.2941 1.10216 15.0524 0.671932 14.6222C0.241701 14.192 0 13.6084 0 13C0 12.3916 0.241701 11.808 0.671932 11.3778C1.10216 10.9476 1.68568 10.7059 2.29412 10.7059H26.7647ZM26.7647 0C27.3731 0 27.9567 0.241701 28.3869 0.671932C28.8171 1.10216 29.0588 1.68568 29.0588 2.29412C29.0588 2.90256 28.8171 3.48607 28.3869 3.9163C27.9567 4.34653 27.3731 4.58824 26.7647 4.58824H2.29412C1.68568 4.58824 1.10216 4.34653 0.671932 3.9163C0.241701 3.48607 0 2.90256 0 2.29412C0 1.68568 0.241701 1.10216 0.671932 0.671932C1.10216 0.241701 1.68568 0 2.29412 0H26.7647Z" fill="white"/>
</svg>
