<svg width="24" height="24" viewBox="0 0 24 24" fill="none" xmlns="http://www.w3.org/2000/svg">
<path fill-rule="evenodd" clip-rule="evenodd" d="M15.3005 16.1281C15.8391 15.5895 16.7125 15.5895 17.2511 16.1281L22.7684 21.6454C23.307 22.184 23.307 23.0573 22.7684 23.596C22.2297 24.1346 21.3564 24.1346 20.8177 23.596L15.3005 18.0788C14.7618 17.5401 14.7618 16.6668 15.3005 16.1281Z" fill="#3F3F3F"/>
<path fill-rule="evenodd" clip-rule="evenodd" d="M9.93103 2.82132C5.94212 2.82132 2.70846 6.18971 2.70846 10.3448C2.70846 14.4999 5.94212 17.8683 9.93103 17.8683C13.9199 17.8683 17.1536 14.4999 17.1536 10.3448C17.1536 6.18971 13.9199 2.82132 9.93103 2.82132ZM0 10.3448C0 4.63154 4.44628 0 9.93103 0C15.4158 0 19.8621 4.63154 19.8621 10.3448C19.8621 16.0581 15.4158 20.6897 9.93103 20.6897C4.44628 20.6897 0 16.0581 0 10.3448Z" fill="#3F3F3F"/>
</svg>
