<svg width="13" height="13" viewBox="0 0 13 13" fill="none" xmlns="http://www.w3.org/2000/svg">
<g clip-path="url(#clip0_43_854)">
<path d="M6.10333 0C6.90493 0 7.69868 0.156022 8.43926 0.459158C9.17984 0.762294 9.85275 1.20661 10.4196 1.76673C11.5643 2.89795 12.2074 4.43221 12.2074 6.03199C12.2127 7.42486 11.7247 8.77567 10.8279 9.85024L12.0487 11.0566C12.1334 11.1415 12.1908 11.2492 12.2136 11.3662C12.2364 11.4832 12.2236 11.6043 12.1769 11.7141C12.1262 11.8227 12.044 11.9139 11.9407 11.9762C11.8375 12.0384 11.7179 12.069 11.597 12.064H6.10333C4.48443 12.064 2.93184 11.4285 1.7871 10.2973C0.642367 9.16604 -0.000738144 7.63177 -0.000738144 6.03199C-0.000738144 4.43221 0.642367 2.89795 1.7871 1.76673C2.93184 0.635512 4.48443 0 6.10333 0ZM6.10333 10.8576H10.1259L9.55824 10.2966C9.44455 10.1836 9.38074 10.0307 9.38074 9.87135C9.38074 9.712 9.44455 9.55912 9.55824 9.4461C10.3575 8.65714 10.8552 7.61873 10.9666 6.50779C11.078 5.39685 10.7962 4.28211 10.1691 3.3535C9.54205 2.42488 8.60857 1.73984 7.52771 1.41509C6.44685 1.09034 5.28547 1.14596 4.24146 1.57249C3.19744 1.99902 2.33538 2.77006 1.80214 3.75425C1.26889 4.73844 1.09746 5.87488 1.31705 6.96997C1.53664 8.06506 2.13367 9.05103 3.00641 9.75991C3.87915 10.4688 4.97361 10.8567 6.10333 10.8576Z" fill="#878787"/>
</g>
<defs>
<clipPath id="clip0_43_854">
<rect width="12.8185" height="12.0645" fill="white" transform="matrix(-1 0 0 1 12.8184 0)"/>
</clipPath>
</defs>
</svg>
