<svg width="268" height="33" viewBox="0 0 268 33" fill="none" xmlns="http://www.w3.org/2000/svg">
<g clip-path="url(#clip0_98_5)">
<path fill-rule="evenodd" clip-rule="evenodd" d="M184.557 33L203.65 0H267.622V5.44106H219.635L214.896 13.7659H240.228L237.175 19.2069H211.709L206.836 27.5317H232.302L229.115 33H184.557ZM138.633 24.4031H157.832C157.19 25.3553 156.895 26.3075 157.297 26.906C157.993 27.967 160.457 27.4497 161.1 27.2325C162.385 26.8244 163.081 26.0082 163.696 24.92L166.91 19.2069H147.336C143.238 19.2069 143.105 16.7312 144.765 13.7659L150.79 3.37345C152.584 0.380874 154.994 0 158.073 0H192.108C195.563 0 195.563 2.85655 194.17 5.44106L192.242 8.95054H172.935C173.525 7.80791 173.551 6.80132 173.096 6.1756C172.346 5.1418 170.365 5.35944 169.32 5.90354C168.49 6.36603 167.794 7.15499 167.044 8.43364L163.965 13.7659H182.897C186.887 13.7659 187.503 16.7316 186.244 19.2069L180.487 28.9736C178.934 31.5581 176.256 33 173.176 33H139.383C136.063 33 134.912 30.7692 136.33 28.3207L138.633 24.4031ZM98.198 5.44106C101.277 0 106.392 0 110.355 0H139.276C142.328 0 144.899 2.5845 143.238 5.44106L130.465 27.5317C127.761 31.939 125.592 33 122.137 33H88.4776C85.1571 33 83.6308 30.5243 85.4249 27.5317L98.198 5.44106ZM114.988 8.43364L105.241 24.92C104.919 25.5186 104.785 26.0623 104.973 26.4979C105.589 27.8582 109.364 27.6134 110.676 27.3413C112.551 26.906 113.033 25.5458 113.435 24.92L123.048 8.43364C123.717 7.26381 123.637 6.50206 123.048 6.03957C122.191 5.35944 119.567 5.30503 118.121 5.71311C116.889 6.06678 115.871 6.85573 114.988 8.43364ZM51.4973 0H88.6115C91.557 0 93.8599 2.72053 91.9319 5.98516L88.1027 12.596C86.4425 15.5886 83.6308 17.0033 81.5689 17.0033C83.6308 18.1731 83.6308 20.2403 82.5864 22.0635L78.7572 28.8372C77.7396 30.66 76.1865 33 71.4736 33H0.164062V27.5317H35.5109L51.4973 0ZM62.6369 13.7659H72.0895C74.2853 13.7659 75.169 12.596 75.6777 11.5622L77.6058 8.43364C78.3823 7.01896 78.3823 5.44106 76.7221 5.44106H67.4837L62.6369 13.7659ZM54.5768 27.5317H64.0294C66.2251 27.5317 67.1088 26.3615 67.6172 25.3281L69.5456 22.1995C70.3222 20.7576 70.3222 19.2069 68.6352 19.2069H59.4236L54.5768 27.5317ZM265.131 12.0519C263.659 12.0519 262.4 10.8821 262.4 9.3042C262.4 7.7263 263.659 6.58368 265.131 6.58368C266.604 6.58368 267.836 7.7263 267.836 9.3042C267.836 10.8821 266.604 12.0519 265.131 12.0519ZM262.935 9.3042C262.935 10.6101 263.9 11.5894 265.131 11.5894C266.336 11.5894 267.3 10.6101 267.3 9.3042C267.3 7.99835 266.336 7.01896 265.131 7.01896C263.9 7.01896 262.935 7.99835 262.935 9.3042ZM264.569 9.52185V10.8821H264.087V7.7263H265.266C266.015 7.7263 266.363 7.99835 266.363 8.62407C266.363 9.19538 266.015 9.44023 265.56 9.49464L266.444 10.8821H265.908L265.105 9.52185H264.569ZM264.569 9.11377H265.131C265.533 9.11377 265.882 9.08656 265.882 8.59687C265.882 8.21599 265.533 8.13438 265.212 8.13438H264.569V9.11377Z" fill="url(#paint0_linear_98_5)"/>
</g>
<defs>
<linearGradient id="paint0_linear_98_5" x1="7.14608" y1="-25.6322" x2="243.125" y2="54.487" gradientUnits="userSpaceOnUse">
<stop offset="0.365" stop-color="#DEDEDE"/>
<stop offset="1" stop-color="#8C8C8C"/>
</linearGradient>
<clipPath id="clip0_98_5">
<rect width="268" height="33" fill="white"/>
</clipPath>
</defs>
</svg>
