<svg width="27" height="25" viewBox="0 0 27 25" fill="none" xmlns="http://www.w3.org/2000/svg">
<path d="M3.11069 0C10.0382 0 16.9847 0 23.9122 0C23.9313 0.0763359 24.0076 0.0381679 24.0458 0.0572519C25.7443 0.419847 26.9656 1.85114 26.9656 3.53053C26.9847 7.5 26.9847 11.4695 26.9656 15.4389C26.9656 17.3664 25.3244 18.9504 23.3969 18.9504C21.145 18.9504 18.9122 18.9504 16.6603 18.9504C16.5076 18.9504 16.4313 19.0076 16.374 19.1412C15.8969 20.3053 15.4008 21.4695 14.9046 22.6336C14.6374 23.2824 14.3511 23.9313 14.084 24.5802C13.9313 24.9237 13.7405 25.0763 13.4542 25.0382C13.1679 25 13.0534 24.771 12.958 24.542C12.1947 22.7672 11.4313 20.9733 10.687 19.1985C10.6107 19.0267 10.5344 18.9695 10.3626 18.9695C8.11069 18.9695 5.85878 18.9695 3.60687 18.9695C1.92748 18.9695 0.477099 17.8053 0.114504 16.1641C0.0954198 16.0878 0.114504 15.9924 0.0381679 15.9351C0 11.6221 0 7.34733 0 3.05344C0.0763359 2.99618 0.0572519 2.90076 0.0763359 2.82443C0.343511 1.69847 0.992366 0.877863 2.0229 0.343511C2.36641 0.171756 2.74809 0.114504 3.11069 0ZM22.0802 12.0038C22.0992 12.1947 22.0611 12.3664 22.0229 12.5382C21.8893 13.1298 21.5649 13.3969 20.9542 13.3969C20.916 13.3969 20.8588 13.3969 20.8206 13.3969C20.687 13.3779 20.6489 13.4351 20.6679 13.5687C20.6679 13.9504 20.6679 14.3511 20.6679 14.7328C20.6679 14.8473 20.7061 14.9046 20.8206 14.8855C21.0305 14.8855 21.2405 14.8855 21.4313 14.8855C22.7672 14.8473 23.626 14.0649 23.6832 12.729C23.7405 11.126 23.7023 9.5229 23.7214 7.91985C23.7214 7.78626 23.6641 7.76718 23.5496 7.76718C23.2252 7.76718 22.9008 7.76718 22.5763 7.76718C22.1565 7.76718 22.1565 7.76718 22.1374 8.16794C22.1374 8.18702 22.1183 8.18702 22.1183 8.20611C21.7176 7.84351 21.5458 7.74809 21.2214 7.69084C20.1908 7.46183 19.1031 8.07252 18.7214 9.06489C18.5305 9.5229 18.5687 10 18.5687 10.4771C18.5687 11.5076 19.084 12.2137 20.0763 12.4809C20.7824 12.6718 21.4695 12.5763 22.0802 12.0038ZM4.92366 12.0038C5.40076 12.4237 5.91603 12.6145 6.5458 12.5191C7.5 12.3664 8.20611 11.7939 8.39695 10.9542C8.53053 10.3435 8.53053 9.73282 8.33969 9.12214C7.99618 8.0916 7.08015 7.5 6.01145 7.65267C5.5916 7.70992 5.22901 7.8626 4.90458 8.22519C4.90458 8.0916 4.90458 8.01527 4.90458 7.95802C4.90458 7.27099 4.90458 6.58397 4.90458 5.89695C4.90458 5.76336 4.8855 5.70611 4.73282 5.70611C4.31298 5.72519 3.87405 5.70611 3.4542 5.70611C3.32061 5.70611 3.28244 5.76336 3.30153 5.87786C3.30153 7.9771 3.30153 10.0763 3.30153 12.1756C3.30153 12.3282 3.35878 12.3473 3.49237 12.3473C3.83588 12.3473 4.19847 12.3473 4.54198 12.3473C4.8855 12.3855 4.8855 12.3855 4.92366 12.0038ZM17.6908 10.1527C17.6908 9.84733 17.6336 9.56107 17.5191 9.27481C16.8702 7.69084 14.6947 7.17557 13.3015 8.30153C12.1565 9.23664 12.0992 10.8015 13.1679 11.813C13.9885 12.5954 15.2672 12.7863 16.2977 12.2519C17.1756 11.8321 17.6527 11.126 17.6908 10.1527ZM11.2977 9.86641C11.2977 9.17939 11.2786 8.49237 11.2977 7.80534C11.3168 6.50763 10.4389 5.57252 9.14122 5.51527C9.00763 5.51527 8.95038 5.53435 8.95038 5.68702C8.95038 6.08779 8.95038 6.48855 8.95038 6.88931C8.95038 7.0229 8.98855 7.08015 9.12214 7.1374C9.56107 7.30916 9.73282 7.53817 9.73282 8.01527C9.73282 9.4084 9.73282 10.7824 9.73282 12.1756C9.73282 12.3282 9.77099 12.3855 9.92366 12.3855C10.3244 12.3664 10.7252 12.3664 11.1069 12.3855C11.2595 12.3855 11.2977 12.3282 11.2977 12.1947C11.2977 11.4122 11.2977 10.6489 11.2977 9.86641Z" fill="white"/>
<path d="M21.2023 11.1069C20.6489 11.1069 20.21 10.687 20.21 10.1336C20.21 9.58017 20.6489 9.14124 21.1832 9.14124C21.7367 9.14124 22.1756 9.56108 22.1756 10.1145C22.1756 10.668 21.7558 11.1069 21.2023 11.1069Z" fill="white"/>
<path d="M5.89668 9.21753C6.41194 9.21753 6.81271 9.61829 6.83179 10.1526C6.83179 10.687 6.41194 11.0878 5.89668 11.0878C5.38141 11.0878 4.96156 10.6679 4.96156 10.1717C4.94248 9.63738 5.36233 9.21753 5.89668 9.21753Z" fill="white"/>
<path d="M16.0497 10.1336C16.0497 10.7061 15.6108 11.1451 15.0383 11.126C14.4848 11.126 14.0459 10.668 14.0459 10.1336C14.0459 9.58017 14.5039 9.14124 15.0764 9.14124C15.6299 9.14124 16.0497 9.56108 16.0497 10.1336Z" fill="white"/>
</svg>
