<svg width="28" height="27" viewBox="0 0 28 27" fill="none" xmlns="http://www.w3.org/2000/svg">
<path d="M1.96582 12.1111C1.96582 6.87361 1.96582 4.25417 3.5936 2.62778C5.21999 1 7.83943 1 13.0769 1H15.8547C21.0922 1 23.7117 1 25.338 2.62778C26.9658 4.25417 26.9658 6.87361 26.9658 12.1111V14.8889C26.9658 20.1264 26.9658 22.7458 25.338 24.3722C23.7117 26 21.0922 26 15.8547 26H13.0769C7.83943 26 5.21999 26 3.5936 24.3722C1.96582 22.7458 1.96582 20.1264 1.96582 14.8889V12.1111Z" stroke="white" stroke-width="2"/>
<path d="M20.7158 9.33333C21.8664 9.33333 22.7992 8.40059 22.7992 7.25C22.7992 6.09941 21.8664 5.16667 20.7158 5.16667C19.5652 5.16667 18.6325 6.09941 18.6325 7.25C18.6325 8.40059 19.5652 9.33333 20.7158 9.33333Z" stroke="white" stroke-width="2"/>
<path d="M14.4658 17.6667C16.767 17.6667 18.6325 15.8012 18.6325 13.5C18.6325 11.1988 16.767 9.33333 14.4658 9.33333C12.1646 9.33333 10.2992 11.1988 10.2992 13.5C10.2992 15.8012 12.1646 17.6667 14.4658 17.6667Z" stroke="white" stroke-width="2"/>
</svg>
