<svg width="364" height="43" viewBox="0 0 364 43" fill="none" xmlns="http://www.w3.org/2000/svg">
<g clip-path="url(#clip0_92_442)">
<path fill-rule="evenodd" clip-rule="evenodd" d="M250.667 43L276.599 0H363.487V7.08986H298.311L291.873 17.9373H326.28L322.133 25.0272H287.546L280.926 35.8747H315.514L311.186 43H250.667ZM188.292 31.798H214.369C213.496 33.0387 213.096 34.2795 213.642 35.0594C214.587 36.4419 217.933 35.7678 218.807 35.4847C220.552 34.953 221.498 33.8895 222.334 32.4716L226.699 25.0272H200.113C194.547 25.0272 194.366 21.8013 196.621 17.9373L204.804 4.39571C207.241 0.49629 210.514 0 214.697 0H260.923C265.615 0 265.615 3.72218 263.724 7.08986L261.105 11.6628H234.882C235.682 10.1739 235.718 8.86232 235.101 8.04699C234.082 6.69992 231.391 6.98351 229.972 7.6925C228.845 8.29514 227.899 9.32317 226.88 10.9893L222.698 17.9373H248.412C253.832 17.9373 254.668 21.8018 252.958 25.0272L245.139 37.7535C243.029 41.1212 239.393 43 235.21 43H189.311C184.801 43 183.238 40.0932 185.165 36.9027L188.292 31.798ZM133.373 7.08986C137.556 0 144.502 0 149.885 0H189.165C193.311 0 196.802 3.36768 194.547 7.08986L177.199 35.8747C173.526 41.6175 170.58 43 165.888 43H120.171C115.661 43 113.588 39.7741 116.025 35.8747L133.373 7.08986ZM156.177 10.9893L142.939 32.4716C142.502 33.2514 142.32 33.9599 142.575 34.5276C143.411 36.3001 148.539 35.981 150.322 35.6265C152.868 35.0594 153.522 33.2869 154.068 32.4716L167.125 10.9893C168.034 9.46496 167.925 8.47238 167.125 7.86974C165.961 6.98351 162.396 6.91261 160.432 7.44435C158.759 7.90519 157.377 8.93322 156.177 10.9893ZM69.9439 0H120.353C124.353 0 127.481 3.54493 124.863 7.79885L119.662 16.413C117.407 20.3124 113.588 22.1558 110.787 22.1558C113.588 23.6801 113.588 26.3738 112.169 28.7494L106.969 37.5758C105.587 39.9509 103.477 43 97.0759 43H0.222656V35.8747H48.231L69.9439 0ZM85.0738 17.9373H97.9125C100.895 17.9373 102.095 16.413 102.786 15.066L105.405 10.9893C106.459 9.14592 106.459 7.08986 104.204 7.08986H91.6568L85.0738 17.9373ZM74.1265 35.8747H86.9651C89.9474 35.8747 91.1476 34.3499 91.8382 33.0033L94.4573 28.9266C95.512 27.0478 95.512 25.0272 93.2207 25.0272H80.7094L74.1265 35.8747ZM360.103 15.704C358.103 15.704 356.393 14.1797 356.393 12.1237C356.393 10.0676 358.103 8.57873 360.103 8.57873C362.104 8.57873 363.777 10.0676 363.777 12.1237C363.778 14.1797 362.104 15.704 360.103 15.704ZM357.121 12.1237C357.121 13.8252 358.431 15.1014 360.103 15.1014C361.74 15.1014 363.049 13.8252 363.049 12.1237C363.049 10.4221 361.74 9.14592 360.103 9.14592C358.431 9.14592 357.121 10.4221 357.121 12.1237ZM359.34 12.4073V14.1797H358.686V10.0676H360.286C361.304 10.0676 361.777 10.4221 361.777 11.2374C361.777 11.9819 361.304 12.3009 360.686 12.3718L361.886 14.1797H361.158L360.067 12.4073H359.34ZM359.34 11.8755H360.104C360.649 11.8755 361.123 11.8401 361.123 11.202C361.123 10.7057 360.649 10.5993 360.213 10.5993H359.34V11.8755Z" fill="white"/>
</g>
<defs>
<clipPath id="clip0_92_442">
<rect width="364" height="43" fill="white"/>
</clipPath>
</defs>
</svg>
